# AST/ASF file generated using VICON BodyLanguage
# -----------------------------------------------
:version 1.10
:name VICON
:units
  mass 1.0
  length 0.45
  angle deg
:documentation
   .ast/.asf automatically generated from VICON data using
   VICON BodyBuilder and BodyLanguage model FoxedUp or BRILLIANT.MOD
:root
   order TX TY TZ RX RY RZ
   axis XYZ
   position 0 0 0  
   orientation 0 0 0 
:bonedata
  begin
     id 1 
     name lhipjoint
     direction 0.561145 -0.797705 0.220866 
     length 2.46425 
     axis 0 0 0  XYZ
  end
  begin
     id 2 
     name lfemur
     direction 0.34202 -0.939693 0  
     length 7.95556  
     axis 0 0 20  XYZ
    dof rx ry rz
    limits (-160.0 20.0)
           (-70.0 70.0)
           (-60.0 70.0)
  end
  begin
     id 3 
     name ltibia
     direction 0.34202 -0.939693 0   
     length 7.9832   
     axis 0 0 20   XYZ
    dof rx
    limits (-10.0 170.0)
  end
  begin
     id 4 
     name lfoot
     direction 0.0723927 -0.198897 0.977343   
     length 2.23085   
     axis -90 7.62852e-016 20   XYZ
    dof rx rz
    limits (-45.0 90.0)
           (-70.0 20.0)
  end
  begin
     id 5 
     name ltoes
     direction 1.53826e-011 -4.21988e-011 1   
     length 1.12127   
     axis -90 7.62852e-016 20   XYZ
    dof rx
    limits (-90.0 20.0)
  end
  begin
     id 6 
     name rhipjoint
     direction -0.610499 -0.763299 0.21134   
     length 2.57533  
     axis 0 0 0  XYZ 
  end
  begin
     id 7 
     name rfemur
     direction -0.34202 -0.939693 0   
     length 8.65257   
     axis 0 0 -20   XYZ
    dof rx ry rz
    limits (-160.0 20.0)
           (-70.0 70.0)
           (-70.0 60.0)
  end
  begin
     id 8 
     name rtibia
     direction -0.342021 -0.939692 0   
     length 7.37807   
     axis 0 0 -20   XYZ
    dof rx
    limits (-10.0 170.0)
 end
 begin
     id 9 
     name rfoot
     direction -0.0239304 -0.0543852 0.998233   
     length 1.87018  
     axis -90 -7.62852e-016 -20   XYZ
    dof rx rz
    limits (-45.0 90.0)
           (-20.0 70.0)
  end
  begin
     id 10 
     name rtoes
     direction -1.53584e-011 -4.2242e-011 1   
     length 0.951568   
     axis -90 -7.62852e-016 -20   XYZ
    dof rx
    limits (-90.0 20.0)
  end
  begin
     id 11 
     name lowerback
     direction 0.00322089 0.999033 0.0438587   
     length 2.07568   
     axis 0 0 0   XYZ
    dof rx ry rz
    limits (-20.0 45.0)
           (-30.0 30.0)
           (-30.0 30.0)
  end
  begin
     id 12 
     name upperback
     direction -0.00321932 0.999732 -0.0229403   
     length 2.06253   
     axis 0 0 0   XYZ
    dof rx ry rz
    limits (-20.0 45.0)
           (-30.0 30.0)
           (-30.0 30.0)
  end
  begin
     id 13 
     name thorax
     direction -0.00537537 0.998955 -0.0453918   
     length 2.06975   
     axis 0 0 0   XYZ
    dof rx ry rz
    limits (-20.0 45.0)
           (-30.0 30.0)
           (-30.0 30.0)
  end
  begin
     id 14 
     name lowerneck
     direction -0.00013604 0.994111 0.108363   
     length 1.50836   
     axis 0 0 0   XYZ
    dof rx ry rz
    limits (-20.0 45.0)
           (-30.0 30.0)
           (-30.0 30.0)
  end
  begin
     id 15 
     name upperneck
     direction 0.0397262 0.983859 -0.174482   
     length 1.53037   
     axis 0 0 0   XYZ
    dof rx ry rz
    limits (-20.0 45.0)
           (-30.0 30.0)
           (-30.0 30.0)
  end
  begin
     id 16
     name head
     direction 0.0109991 0.997082 -0.0755378  
     length 1.56928  
     axis 0 0 0   XYZ
    dof rx ry rz
    limits (-20.0 45.0)
           (-30.0 30.0)
           (-30.0 30.0)
  end
  begin
     id 17 
     name lclavicle
     direction 0.964749 0.254 -0.068874  
     length 3.26503  
     axis 0 0 0   XYZ
    dof ry rz
    limits (-20.0 10.0)
           (0.0 20.0)
  end
  begin
     id 18 
     name lhumerus
     direction 1 -4.48941e-011 -2.05079e-027   
     length 5.68236   
     axis 180 -30 -90   XYZ
    dof rx ry rz
    limits (-60.0 90.0)
           (-90.0 90.0)
           (-90.0 90.0)
  end
  begin
     id 19
     name lradius
     direction 1 -4.48956e-011 6.2882e-027   
     length 3.17112   
     axis 180 -30 -90   XYZ
    dof rx
    limits (-10.0 170.0)
  end
  begin
     id 20
     name lwrist
     direction 1 -4.49014e-011 1.73219e-026   
     length 1.58556   
     axis -1.04724e-014 90 90   XYZ
    dof ry
    limits (-180.0 0.0)
 end
  begin
     id 21 
     name lhand
     direction 1 -4.49312e-011 3.46438e-026   
     length 0.632691   
     axis -2.21057e-014 90 90   XYZ
    dof rx rz
    limits (-90.0 90.0)
           (-45.0 45.0)
  end
  begin
     id 22 
     name lfingers
     direction 1 -4.48894e-011 6.92876e-026   
     length 0.510091   
     axis -4.42114e-014 90 90   XYZ
    dof rx
    limits (0.0 90.0)
  end
  begin
     id 23
     name lthumb
     direction 0.707107 -6.34705e-011 0.707107   
     length 0.732392   
     axis -90 45 2.85299e-015   XYZ
    dof rx rz
    limits (-45.0 45.0)
           (-45.0 45.0)
  end
  begin
     id 24 
     name rclavicle
     direction -0.954374 0.280496 -0.102435   
     length 3.25419  
     axis 0 0 0   XYZ 
    dof ry rz
    limits (-10.0 20.0)
           (-20.0 0.0)
  end
  begin
     id 25 
     name rhumerus
     direction -1 -4.48994e-011 -1.07204e-017  
     length 5.8712   
     axis 180 30 90   XYZ
    dof rx ry rz
    limits (-90.0 60.0)
           (-90.0 90.0)
           (-90.0 90.0)
  end
  begin
     id 26 
     name rradius
     direction -1 -4.48972e-011 5.89292e-027   
     length 3.37589   
     axis 180 30 90   XYZ
    dof rx
    limits (-10.0 170.0)
  end
  begin
     id 27 
     name rwrist
     direction -1 -4.48942e-011 1.73219e-026   
     length 1.68794   
     axis -1.04724e-014 -90 -90   XYZ
    dof ry
    limits (-180.0 0.0)
  end
  begin
     id 28
     name rhand
     direction -1 -4.48514e-011 3.46438e-026   
     length 0.603257   
     axis -2.21057e-014 -90 -90   XYZ
    dof rx rz
    limits (-90.0 90.0)
           (-45.0 45.0)
  end
  begin
     id 29
     name rfingers
     direction -1 -4.50028e-011 6.92876e-026   
     length 0.486362   
     axis -4.42114e-014 -90 -90   XYZ
    dof rx
    limits (0.0 90.0)
  end
  begin
     id 30
     name rthumb
     direction -0.707107 -6.34926e-011 0.707107   
     length 0.698321   
     axis -90 -45 -2.85299e-015   XYZ
    dof rx rz
    limits (-45.0 45.0)
           (-45.0 45.0)
  end
:hierarchy
  begin
    root lhipjoint rhipjoint lowerback
    lhipjoint lfemur
    lfemur ltibia
    ltibia lfoot
    lfoot ltoes
    rhipjoint rfemur
    rfemur rtibia
    rtibia rfoot
    rfoot rtoes
    lowerback upperback
    upperback thorax
    thorax lowerneck lclavicle rclavicle
    lowerneck upperneck
    upperneck head
    lclavicle lhumerus
    lhumerus lradius
    lradius lwrist
    lwrist lhand lthumb
    lhand lfingers
    rclavicle rhumerus
    rhumerus rradius
    rradius rwrist
    rwrist rhand rthumb
    rhand rfingers
  end

#!OML:ASF I:\Segmentation\Patient Classification 1\Patient 1\Session 1\Patient1.ASF
:FULLY-SPECIFIED
:DEGREES
716
root -5.9234 19.9732 -1.91651 8.69252 86.3215 -379.005
lowerback -3.10568 0.357592 1.41622
upperback -1.85578 0.476564 1.8705
thorax -0.166292 0.253366 1.1362
lowerneck -16.2047 -0.833004 -2.06157
upperneck 16.8288 -1.07276 2.5576
head 7.89835 -0.361108 1.06861
rclavicle -1.03368e-014 -1.59028e-015
rhumerus 45.0455 1.99792 -65.0514
rradius 88.7856
rwrist -15.453
rhand -32.3851 39.9441
rfingers 7.12502
rthumb -5.62057 10.0386
lclavicle -1.03368e-014 -1.59028e-015
lhumerus 36.3342 2.58455 60.031
lradius 107.224
lwrist 31.9239
lhand -17.8545 30.0943
lfingers 7.12502
lthumb 8.41078 59.9068
rfemur -41.1782 5.6244 14.619
rtibia 70.6274
rfoot 11.5592 -4.10233
rtoes -14.7538
lfemur -40.1893 -2.27292 -14.6279
ltibia 67.4032
lfoot 5.99449 14.3953
ltoes -24.1245
717
root -5.75346 20.0993 -1.92183 9.95605 86.1003 -377.892
lowerback -2.89843 0.425552 1.36413
upperback -1.6376 0.563918 1.81341
thorax -0.0591064 0.295424 1.10855
lowerneck -16.808 -0.882534 -1.82807
upperneck 16.7249 -1.16486 2.39725
head 7.96985 -0.405553 0.964908
rclavicle 4.17448e-015 2.46493e-014
rhumerus 44.5635 1.6873 -64.7669
rradius 88.2291
rwrist -15.5589
rhand -32.2167 40.208
rfingers 7.12502
rthumb -5.45792 10.2983
lclavicle 4.17448e-015 2.46493e-014
lhumerus 35.5331 3.12344 59.8691
lradius 108.184
lwrist 31.8942
lhand -17.9911 30.2493
lfingers 7.12502
lthumb 8.27889 60.0671
rfemur -43.0685 4.94076 14.8005
rtibia 72.6557
rfoot 10.6209 -3.80208
rtoes -15.4263
lfemur -41.8971 -1.60481 -14.9648
ltibia 69.8162
lfoot 6.41874 13.2721
ltoes -27.0299
718
root -5.58413 20.2113 -1.92234 10.3197 85.8269 -377.703
lowerback -2.6247 0.501467 1.25199
upperback -1.44274 0.667065 1.85423
thorax -0.0151593 0.346661 1.21438
lowerneck -17.478 -0.894783 -1.73388
upperneck 16.6239 -1.16933 2.2252
head 8.05211 -0.418815 0.890014
rclavicle 0 -1.55052e-014
rhumerus 44.0667 1.52883 -64.3386
rradius 87.6647
rwrist -15.7418
rhand -31.7122 39.7485
rfingers 7.12502
rthumb -4.97082 9.8268
lclavicle 0 -1.55052e-014
lhumerus 34.6434 3.68621 59.7911
lradius 109.026
lwrist 31.9237
lhand -18.2253 30.4841
lfingers 7.12502
lthumb 8.05289 60.3107
rfemur -45.0383 4.33484 15.0958
rtibia 74.5213
rfoot 9.88327 -3.50084
rtoes -16.4201
lfemur -43.68 -0.869608 -15.2613
ltibia 72.0621
lfoot 6.55824 11.8721
ltoes -29.6752
719
root -5.41303 20.3199 -1.9234 9.63418 85.5753 -378.571
lowerback -2.27219 0.566015 1.19722
upperback -1.26953 0.75735 1.95895
thorax -0.0381669 0.391735 1.35178
lowerneck -18.3191 -0.871669 -1.81113
upperneck 16.5316 -1.10046 2.1633
head 8.16679 -0.396714 0.888662
rclavicle -6.95746e-015 9.14409e-015
rhumerus 43.4741 1.61467 -63.8951
rradius 87.0781
rwrist -15.78
rhand -31.6777 38.7808
rfingers 7.12502
rthumb -4.93757 8.85837
lclavicle -6.95746e-015 9.14409e-015
lhumerus 33.736 4.25402 59.8111
lradius 109.721
lwrist 31.8818
lhand -18.3671 30.7572
lfingers 7.12502
lthumb 7.91602 60.589
rfemur -47.014 3.80658 15.4902
rtibia 76.1734
rfoot 9.26198 -3.04339
rtoes -16.1535
lfemur -45.4382 -0.0434111 -15.5024
ltibia 74.0818
lfoot 6.27123 10.4895
ltoes -31.8703
720
root -5.24001 20.4174 -1.9267 8.59146 85.3231 -379.757
lowerback -2.01038 0.650588 1.28165
upperback -1.01089 0.866384 1.97767
thorax 0.079535 0.444926 1.32454
lowerneck -18.9952 -0.878591 -1.78777
upperneck 16.3054 -1.09455 2.0804
head 8.2077 -0.401183 0.855905
rclavicle 3.97569e-015 1.86858e-014
rhumerus 42.7974 1.67296 -63.5331
rradius 86.3315
rwrist -15.4168
rhand -32.3245 37.9648
rfingers 7.12502
rthumb -5.56207 8.05776
lclavicle 3.97569e-015 1.86858e-014
lhumerus 32.9209 4.75508 59.7699
lradius 110.234
lwrist 31.9281
lhand -18.4387 30.9913
lfingers 7.12502
lthumb 7.84691 60.8256
rfemur -48.8851 3.31315 15.9786
rtibia 77.5991
rfoot 8.47324 -2.48262
rtoes -16.0101
lfemur -47.1276 0.841564 -15.7419
ltibia 75.9044
lfoot 5.83516 9.14644
ltoes -33.0468
721
root -5.06604 20.4995 -1.9278 6.77793 85.0347 -381.692
lowerback -1.78412 0.783766 1.47685
upperback -0.741612 1.03787 1.94336
thorax 0.230345 0.529498 1.18246
lowerneck -19.4516 -0.929179 -1.71024
upperneck 16.0655 -1.17337 2.04218
head 8.20696 -0.437826 0.818951
rclavicle -1.78906e-014 -9.14409e-015
rhumerus 41.9801 1.61961 -63.1846
rradius 85.4743
rwrist -14.7814
rhand -33.0423 37.3123
rfingers 7.12502
rthumb -6.25507 7.42463
lclavicle -1.78906e-014 -9.14409e-015
lhumerus 32.1775 5.04617 59.6696
lradius 110.483
lwrist 32.0219
lhand -18.5709 31.1381
lfingers 7.12502
lthumb 7.71935 60.9772
rfemur -50.678 2.93379 16.605
rtibia 78.7953
rfoot 7.41481 -1.9714
rtoes -17.3513
lfemur -48.738 1.83848 -15.924
ltibia 77.5302
lfoot 5.40033 8.00443
ltoes -32.2638
